<svg width="484" height="482" viewBox="0 0 484 482" fill="none" xmlns="http://www.w3.org/2000/svg">
<g clip-path="url(#clip0_214_80)">
<path d="M398.117 392.903C399.258 392.84 400.418 392.77 401.561 392.805C402.366 392.83 403.272 392.918 403.766 393.649C404.104 394.15 404.074 394.283 403.92 394.813C401.862 396.598 396.173 396.13 393.521 396.229C392.065 396.301 390.101 396.554 388.696 396.164C388.023 395.977 387.76 395.742 387.45 395.133C387.501 394.564 387.638 394.325 387.972 393.864C390.371 392.588 395.291 393.036 398.117 392.903Z" fill="#002642"/>
<path d="M208.215 391.351C210.244 391.101 223.741 392.424 225.7 393.012C226.331 393.202 226.38 393.439 226.67 393.979C226.698 394.717 226.571 395.112 226.309 395.784C226.052 395.806 225.795 395.833 225.538 395.839C222.998 395.896 209.247 394.809 207.824 393.431C207.658 392.645 207.943 392.072 208.215 391.351Z" fill="#002642"/>
<path d="M246.026 400.655C248.475 400.715 262.583 401.765 264.007 402.893C264.508 403.29 264.49 403.538 264.491 404.108C264.143 404.693 263.89 404.933 263.346 405.31C260.17 405.202 256.974 404.741 253.809 404.443C251.728 404.247 249.438 404.221 247.401 403.852C246.504 403.689 245.75 403.38 245.011 402.86C244.707 402.311 244.608 402.243 244.687 401.631C245.134 401.157 245.41 400.921 246.026 400.655Z" fill="#002642"/>
<path d="M417.026 409.02C419.584 409.018 433.591 410.949 436.059 411.815C436.669 412.029 436.856 412.27 437.16 412.817C437.227 413.525 436.998 413.913 436.683 414.517C434.739 414.637 419.323 412.655 417.447 411.922C416.844 411.686 416.795 411.501 416.527 410.96C416.516 410.172 416.687 409.725 417.026 409.02Z" fill="#002642"/>
<path d="M68.8797 403.949C72.721 404.116 89.4048 405.804 92.0219 406.872C92.4213 407.313 92.6245 407.452 92.5508 408.098C92.4671 408.828 91.9727 409.167 91.4301 409.558C88.166 409.299 69.2607 407.607 67.6503 406.324C67.3752 405.682 67.3611 405.556 67.4405 404.862C67.9604 404.262 68.1565 404.214 68.8797 403.949Z" fill="#002642"/>
<path d="M17.9289 406.936C22.5345 406.608 27.3244 406.87 31.9476 406.86C35.934 406.852 40.251 406.506 44.1997 406.993C44.6364 407.335 44.931 407.504 45.0109 408.104C45.0928 408.72 44.7589 409.216 44.4481 409.703C42.116 410.082 20.0052 410.203 18.3246 409.753C17.8242 409.619 17.7284 409.32 17.4805 408.913C17.4135 408.119 17.6232 407.643 17.9289 406.936Z" fill="#002642"/>
<path d="M146.037 393.096C146.582 392.986 146.687 392.983 147.214 393.152C147.335 393.368 147.43 393.525 147.528 393.742C147.849 394.461 147.747 395.032 147.48 395.739C145.999 397.12 128.565 400.974 125.385 401.656C124.575 401.558 124.172 401.419 123.669 400.788C123.545 400.037 123.495 399.897 123.783 399.204C125.361 397.82 142.738 393.829 146.037 393.096Z" fill="#002642"/>
<path d="M235.672 80.5119C234.806 80.0868 233.581 79.6439 233.001 78.8503C232.622 78.3321 232.624 78.0134 232.755 77.4194C233.603 76.6733 234.898 76.5843 235.968 76.2676L236.055 75.8872C235.694 75.5013 235.417 75.2019 235.207 74.7138C236.22 73.0847 238.691 72.4261 239.943 70.7857C243.44 66.2067 245.154 60.5781 249.45 56.5239C253.702 52.5121 259.978 51.116 265.68 51.3259C273.555 51.6159 282.138 55.6559 287.465 61.4348C291.415 65.721 292.94 71.0639 292.646 76.806C292.218 85.1686 287.758 90.2705 281.789 95.5989C282.14 97.8601 283.462 100.65 283.041 102.902C281.51 104.647 279.431 104.064 277.711 105.233C273.366 108.187 271.467 112.549 266.021 114.541C263.639 113.387 261.972 112.064 259.309 111.405C258.228 112.539 257.271 113.831 255.905 114.632C257.792 123.258 259.993 131.822 261.542 140.519C263.188 149.754 264.046 159.189 264.626 168.54C268.755 164.451 291.752 138.378 294.755 137.515C296.552 137.714 298.19 139.648 299.486 140.832C299.846 140.404 300.208 139.979 300.573 139.555L300.819 139.263C301.392 138.591 301.955 138.007 302.894 137.982C303.438 137.968 303.734 138.219 304.16 138.522C308.086 141.311 311.719 144.851 315.438 147.931C320.36 152.007 325.503 155.83 330.251 160.104C332.226 158.042 337.188 151.266 339.716 150.578C340.351 150.406 340.598 150.549 341.133 150.877C341.368 151.393 341.575 151.792 341.934 152.24L342.36 152.35C343.242 152.581 343.483 152.679 343.941 153.469C343.973 155.405 336.306 162.151 334.67 164.064L334.501 164.266C337.7 162.028 340.275 158.998 343.421 156.767C344.28 156.158 345.158 155.637 346.243 155.801C346.737 156.207 346.777 156.407 347.011 157.011C346.978 157.257 347.008 157.52 346.912 157.749C346.492 158.748 339.697 164.036 338.36 165.136C330.744 171.405 323.661 178.075 316.381 184.722C312.337 188.416 307.899 191.982 304.121 195.928C302.488 197.635 301.286 199.654 299.712 201.383C295.471 206.042 285.233 205.529 279.413 205.763L277.737 207.675C275.334 207.645 272.896 207.355 270.498 207.171C270.148 215.274 270.706 223.473 270.78 231.585C270.842 235.516 270.74 239.443 270.474 243.366C270.207 247.288 269.778 251.193 269.185 255.08C268.907 256.919 268.766 259.585 267.82 261.207C266.947 262.703 263.779 263.039 262.16 263.396C263.193 269.421 264.63 275.374 265.868 281.359C268.069 292.263 270.366 303.146 272.758 314.01C274.304 320.935 276.132 327.823 277.342 334.815C281.992 334.693 286.273 335.058 290.853 335.787C302.334 328.408 316.837 327.874 329.854 330.363C340.193 325.952 350.166 324.581 361.352 325.607C373.196 318.617 384.07 315.705 397.75 318.61C402.504 316.515 409.565 316.761 414.59 317.518C417.172 316.318 419.715 315.313 422.516 314.744C431.556 312.908 438.048 314.634 445.547 319.598C447.193 318.679 448.928 317.773 450.702 317.128C453.541 316.097 456.419 316.179 459.333 315.599C461.438 315.181 463.479 314.463 465.589 314.046C472.104 312.756 478.054 314.015 484 316.77V321.287C476.957 318.783 473.592 316.72 465.789 318.284C463.667 318.71 461.604 319.449 459.479 319.837C456.7 320.345 454.046 319.988 451.391 321.256C449.468 322.176 446.554 324.795 444.348 324.018C442.494 323.365 440.907 321.493 439.145 320.525C432.565 316.909 424.309 317.863 417.646 320.692C416.857 321.028 416.07 321.37 415.287 321.718C411.529 321.134 407.673 320.731 403.904 321.469C401.894 321.862 399.795 322.53 397.751 322.665C394.823 322.858 391.791 321.457 388.751 321.478C381.692 321.526 374.31 323.109 368.117 326.571C366.053 327.726 364.107 329.388 361.973 330.353C351.496 327.749 339.607 329.993 330.291 335.236C317.94 331.181 304.718 333.155 293.236 338.928L291.5 339.81C287.051 339.173 282.724 338.371 278.206 338.725C279.075 344.572 281.019 350.367 282.362 356.136C284.481 365.24 286.218 374.6 288.85 383.568L317.673 383.465C322.912 383.448 328.237 383.651 333.46 383.374C333.977 382.09 333.335 381.264 334.878 380.595C336.867 380.651 338.466 381.95 340.166 382.85C342.026 381.406 344.68 379.466 347.169 379.696C347.748 379.75 348.094 379.916 348.552 380.28C348.782 380.812 348.826 380.944 348.564 381.518C347.9 382.965 345.583 383.408 344.195 383.773C351.932 383.892 359.67 383.945 367.408 383.931C375.938 383.98 384.46 384.133 392.991 384.094C398.065 384.071 404.452 384.756 409.316 384.168C409.405 384.157 409.494 384.153 409.583 384.141C410.734 383.992 411.83 382.641 412.883 382.126C413.637 381.757 414.667 381.653 415.493 381.511C417.033 380.026 418.402 378.747 420.733 378.859C421.502 378.896 421.925 379.127 422.444 379.671C422.633 380.538 422.561 381.135 422.109 381.901C421.744 382.521 421.08 383.118 420.582 383.64L424.263 383.755C425.664 379.279 428.403 374.971 432.714 372.761C434.606 371.79 437.403 371.088 439.508 371.703C439.825 371.795 440.042 371.951 440.284 372.165C440.449 372.759 440.449 372.987 440.126 373.532C439.496 374.599 438.138 375.284 437.164 376.014C434.648 377.901 433.189 380.701 432.195 383.615L435.321 383.62C436.684 380.513 438.857 377.768 442.094 376.435C443.143 376.003 444.04 375.84 445.133 376.166C445.672 376.662 445.679 376.674 445.8 377.394C445.181 379.613 443.416 381.393 442.617 383.623C445.81 383.748 449.004 383.813 452.199 383.818C453.785 383.828 455.593 383.565 457.139 383.897C458.059 384.093 458.632 384.413 459.279 385.082C459.495 385.718 459.53 385.705 459.275 386.32C458.573 386.881 457.977 387.111 457.072 387.185C453.925 387.442 450.594 387.148 447.422 387.162C439.467 387.224 431.513 387.243 423.559 387.217C395.03 387.347 366.501 387.23 337.973 386.865L307.37 386.717C301.463 386.693 295.44 386.419 289.548 386.8C289.965 388.432 290.264 390.517 291.103 391.965C291.964 391.984 292.703 391.847 293.312 392.567C294.457 393.921 294.949 396.674 295.43 398.363L297.392 399.328C302.632 398.628 307.835 397.675 313.046 396.789C316.174 396.256 319.399 395.56 322.577 395.484C324.463 396.483 327.02 398.071 327.595 400.256C327.826 401.136 327.658 402.034 327.176 402.799C325.317 405.749 311.926 410.417 308.132 411.896C312.355 411.878 316.575 411.951 320.795 412.116C325.014 412.28 329.227 412.536 333.435 412.884C337.643 413.231 341.842 413.669 346.031 414.198C350.219 414.728 354.395 415.347 358.557 416.057C360.084 416.307 364.744 416.632 365.744 417.711C366.113 418.11 365.856 418.909 366.1 419.19C366.849 420.051 385.662 423.064 388.513 423.487C390.632 423.802 394.28 423.719 396.02 424.959C396.231 425.533 396.215 425.6 396.075 426.199C395.513 426.805 395.236 426.939 394.4 426.951C390.4 427.006 385.871 425.936 381.9 425.367C381.425 426.075 381.084 426.651 380.326 427.074C375.892 427.772 370.802 426.995 366.276 426.971C341.047 426.838 315.759 424.531 290.646 422.271C287.984 422.031 278.957 421.813 277.102 420.743C276.934 420.128 276.93 420.068 277.133 419.464C278.542 418.18 281.286 418.257 283.141 418.059C281.805 413.821 280.213 409.864 279.167 405.513C278.007 405.41 277.01 405.356 276.215 404.399C275.067 403.016 274.497 401.143 274.72 399.365C274.78 398.89 274.889 398.486 275.084 398.046C275.554 397.721 276.031 397.408 276.515 397.104C275.473 393.722 273.445 390.24 271.803 387.084C260.546 386.572 248.696 387.23 237.36 387.238C233.549 387.241 229.412 387.504 225.634 387.118C225.073 387.061 224.493 386.899 224.08 386.489C222.993 385.412 223.586 384.51 221.691 384.278L221.39 384.441C221.704 385.205 221.979 385.514 221.762 386.327C221.166 386.848 220.674 387.001 219.903 387.097C213.625 387.879 178.916 386.286 177.18 387.677C177.197 388.762 177.214 389.303 176.391 390.125C175.922 390.594 175.402 391.029 174.893 391.454L176.415 392.549C175.43 394.683 175.757 396.21 173.985 397.921C178.886 402.417 187.386 409.349 190.315 415.274C193.664 412.97 198.286 414.801 200.942 413.021C203.052 411.607 217.729 412.963 220.838 413.638C222.436 413.984 229.145 415.661 229.891 416.601C229.989 417.221 229.934 417.263 229.641 417.829C229.026 418.248 228.581 418.417 227.824 418.413C226.065 418.404 224.131 417.871 222.4 417.548C219.177 416.946 215.971 416.35 212.698 416.085C206.919 415.615 201.4 416.033 195.642 416.619C202.715 417.518 209.316 417.636 216.354 418.135C223.002 418.66 229.625 419.405 236.223 420.37C245.428 421.715 254.439 424.584 263.546 426.5C266.234 427.066 273.574 427.68 275.295 429.369C275.505 429.981 275.507 429.962 275.263 430.561C274.34 431.245 273.495 431.264 272.378 431.113C267.893 430.507 263.425 429.187 258.941 428.446L259.114 428.729C259.443 429.274 259.826 429.734 259.779 430.396C259.038 431.109 257.888 430.99 256.896 430.97C250.702 430.843 244.342 429.774 238.203 428.985C230.401 427.982 222.553 427.092 214.787 425.842C211.448 425.304 208.158 424.352 204.805 423.954C200.151 423.402 195.422 423.461 190.747 423.177C184.888 422.822 179.039 422.172 173.194 421.645C170.705 421.42 167.202 421.712 165.002 420.554C164.658 420.025 164.701 419.936 164.727 419.296C165.295 418.36 166.063 418.039 167.092 417.8C169.884 417.155 172.823 417.34 175.632 416.823C170.009 412.66 163.996 408.881 158.141 405.047C155.402 403.253 152.381 401.528 149.867 399.441C149.058 398.77 148.255 397.956 147.883 396.959C148.353 394.777 153.795 388.95 155.477 386.974L57.9292 386.756L31.5576 386.804C27.922 386.815 24.1488 387.046 20.5268 386.898C19.5359 386.857 18.466 386.657 17.7437 385.928C17.457 385.639 17.4709 385.423 17.3825 385.046C17.7025 384.353 17.9933 383.982 18.7302 383.704C20.432 383.061 31.3242 383.455 34.0012 383.441C35.7333 381.784 38.0524 379.936 40.5752 379.927C41.3127 379.924 41.9747 380.087 42.4967 380.63C42.9222 381.073 43.2633 381.66 43.2664 382.283C43.2683 382.658 43.0313 382.846 42.7634 383.09C42.6597 383.185 42.5431 383.264 42.4329 383.351C43.2912 383.415 44.0609 383.466 44.9126 383.325C45.116 382.995 45.1475 382.819 45.2331 382.426C45.5193 381.113 46.603 380.209 47.7085 379.538C48.9029 378.813 50.5619 378.145 51.9837 378.505C52.3448 378.595 52.5929 378.805 52.8699 379.038C53.1989 379.692 53.1715 380.21 52.9375 380.884C52.5669 381.953 51.555 382.825 50.811 383.648L111.377 383.524C126.996 383.583 142.642 383.884 158.258 383.603C158.998 382.227 160.3 378.943 161.729 378.323C162.263 378.448 162.755 378.599 163.268 378.793C163.733 378.488 164.032 378.215 164.405 377.803C165.087 377.049 165.788 376.961 166.74 376.772C169.943 370.406 173.28 364.051 176.64 357.764C179.28 352.823 182.191 347.863 184.128 342.597C179.149 343.102 174.07 344.906 169.131 345.032C166.596 345.097 164.038 344.306 161.495 344.236C158.889 344.164 156.185 344.892 153.605 344.583C150.439 344.204 147.444 343.046 144.227 342.883C140.67 342.702 136.575 343.639 133.289 343.3C129.513 342.911 126.17 339.783 122.349 338.931C116.687 337.668 113.165 338.99 107.742 338.986C104.884 338.984 102.141 337.961 99.3089 337.725C96.1359 337.462 93.1374 338.233 90.0042 338.458C82.8387 333.056 76.533 330.859 67.4358 331.131C65.1769 331.199 62.7905 331.883 60.5591 331.444C58.7337 331.085 56.9522 330.259 55.2114 329.62C52.3694 328.575 49.4715 327.64 46.4991 327.036C39.8775 325.688 33.432 325.995 26.7566 325.558C23.3951 325.338 20.0642 324.277 16.6954 323.919C11.1476 323.33 5.56146 323.661 0 323.844V319.806C5.93845 319.369 11.8853 319.205 17.8102 319.924C21.0156 320.313 24.1846 321.081 27.3979 321.374C31.0547 321.708 34.7787 321.543 38.4504 321.758C46.7117 322.241 54.5521 324.362 62.1297 327.605C73.1185 326.148 82.1193 327.685 91.2123 334.042C94.5757 333.663 97.8143 333.342 101.19 333.845C103.485 334.186 105.838 334.865 108.154 334.942C110.003 335.004 111.875 334.467 113.71 334.276C119.717 333.655 128.65 335.512 133.35 339.401C138.766 338.57 144.022 338.537 149.434 339.395C150.992 339.642 152.553 340.366 154.12 340.458C156.722 340.611 159.37 339.949 161.999 340.11C164.718 340.276 167.406 341.09 170.143 340.862C173.503 340.582 183.374 337.675 185.836 339.078C185.921 339.127 186.003 339.181 186.086 339.232C187.22 338.123 187.94 335.685 188.604 334.203C190.978 328.9 193.217 323.427 194.84 317.845C196.933 310.652 197.936 303.063 199.276 295.703C201.048 285.968 203.005 276.291 204.931 266.586C203.249 266.323 201.663 265.976 200.055 265.419C200.011 265.324 199.965 265.229 199.922 265.133C198.294 261.454 197.619 256.031 196.844 252.064C194.914 242.173 193.846 232.505 193.61 222.421C193.194 204.637 195.177 186.57 197.794 169.001C199.296 158.915 200.963 148.677 203.608 138.816C204.878 134.219 206.366 129.693 208.071 125.238C207.452 124.407 206.901 123.533 206.418 122.617C205.936 121.7 205.527 120.752 205.194 119.772C203.548 114.92 204.142 109.662 206.42 105.108C208.362 101.226 211.171 98.392 215.335 96.9724C217.956 90.7746 224.043 87.0038 230.776 86.888C232.024 86.8668 234.222 87.4802 235.288 87.0231L235.435 86.5359C235.158 85.7117 234.24 85.0994 233.732 84.3646C233.897 83.1516 235.059 81.6331 235.672 80.5119Z" fill="#002642"/>
<path d="M258.042 182.146C259.176 182.743 260.601 183.302 261.253 184.459L260.989 185.384C259.865 185.314 258.953 185.303 258.06 184.585C257.659 183.776 257.901 182.996 258.042 182.146Z" fill="#FEFEFE"/>
<path d="M281.479 196.231C282.045 196.374 282.928 196.514 283.224 197.074C283.983 198.507 283.132 200.949 282.797 202.471C282.155 202.567 281.582 202.722 280.964 202.449C280.269 201.357 281.32 197.625 281.479 196.231Z" fill="#FEFEFE"/>
<path d="M302.36 141.563C303.046 141.809 303.665 142.214 304.245 142.648C305.597 143.66 312.493 149.019 312.66 150.148C310.335 148.6 303.504 144.648 302.267 142.641C302.032 142.262 302.25 141.964 302.36 141.563Z" fill="#FEFEFE"/>
<path d="M254.857 76.8437C255.533 77.0174 255.932 77.1929 256.509 77.5846C257.059 79.2429 254.311 79.9979 254.256 81.9263C254.235 82.6757 254.155 82.968 253.76 83.5992C253.456 83.6792 253.259 83.6736 252.949 83.6618C252.289 82.9845 252.198 81.9075 252.001 81.0122C252.682 79.1073 253.271 78.1315 254.857 76.8437Z" fill="#FEFEFE"/>
<path d="M276.538 193.338C277.273 193.633 278.025 193.831 278.509 194.492C279.007 197.501 277.431 201.525 276.539 204.434C275.779 204.399 275.282 204.497 274.653 204.052C275.493 200.483 276.246 197.005 276.538 193.338Z" fill="#FEFEFE"/>
<path d="M263.552 253.614C264.282 253.518 265.003 253.472 265.739 253.436C266.133 254.64 265.542 257.823 264.966 258.931C264.721 259.402 264.404 259.338 263.916 259.479C263.221 259.622 262.546 259.731 261.841 259.803C261.186 258.677 261.593 255.448 261.685 254.033C262.132 253.573 262.918 253.673 263.552 253.614Z" fill="#FEFEFE"/>
<path d="M338.924 421.108C343.444 421.219 347.97 421.623 352.489 421.835C359.53 422.166 366.763 421.58 373.495 424.153C361.891 424.749 350.316 423.03 338.924 421.108Z" fill="#FEFEFE"/>
<path d="M225.984 265.555L226.553 265.632C227.468 266.946 231.717 279.872 232.428 282.361L231.322 284.312L231.106 284.274C229.725 281.362 224.114 268.612 223.916 266.089C224.468 265.59 225.273 265.629 225.984 265.555Z" fill="#FEFEFE"/>
<path d="M212.797 422.561C221.57 422.495 231.004 422.377 239.662 423.76C242.886 424.275 246.042 425.342 249.222 426.079C252.132 426.754 255.394 427.188 258.156 428.299C252.135 428.551 241.793 426.702 235.5 425.912C229.757 425.192 224.011 424.613 218.303 423.638C216.482 423.328 214.555 423.11 212.797 422.561Z" fill="#FEFEFE"/>
<path d="M302.172 414.095C305.938 413.814 310.057 414.39 313.855 414.548C328.08 415.142 342 416.229 356.086 418.424C357.487 418.642 360.803 418.754 361.861 419.572C351.91 419.227 341.975 418.622 332.055 417.758C322.135 416.893 312.245 415.771 302.385 414.389L302.172 414.095Z" fill="#FEFEFE"/>
<path d="M253.621 120.416C254.533 121.25 255.088 125.241 255.39 126.567C257.011 133.663 258.502 140.821 259.453 148.039C260.471 155.761 260.928 163.473 261.604 171.223C260.96 172.114 260.166 172.892 259.412 173.691L258.306 174.838C258.203 164.388 258.096 153.918 256.556 143.556C255.969 139.603 255.445 135.567 254.697 131.645C254.099 128.506 253.02 125.199 252.835 122.022C252.787 121.208 253.116 120.987 253.621 120.416Z" fill="#FEFEFE"/>
<path d="M232.312 255.918L233.426 255.811L233.731 256.067C233.793 257.562 232.763 259.247 232.171 260.606C222.765 263.39 212.797 263.577 203.07 263.301C202.09 262.512 201.689 259.093 201.406 257.773C211.757 258.297 222.06 257.211 232.312 255.918Z" fill="#FEFEFE"/>
<path d="M263.484 206.666L267.088 206.889C267.072 213.192 267.162 219.494 267.357 225.794C267.52 232.521 268.021 242.791 266.422 249.22C266.252 249.905 266.22 249.951 265.645 250.301L261.714 250.694C261.668 243.746 262.136 236.738 262.392 229.793C262.675 222.113 262.777 214.316 263.484 206.666Z" fill="#FEFEFE"/>
<path d="M160.199 386.857C164.208 389.262 167.975 392.388 171.708 395.212C171.017 396.183 170.203 397.127 169.916 398.299C169.933 398.829 170.072 399.123 170.387 399.536C172.027 401.68 174.426 403.583 176.381 405.451L186.267 415.065L184.574 417.797C183.557 417.306 182.641 416.702 181.701 416.081C178.406 413.635 174.921 411.551 171.468 409.342C165.015 405.213 158.464 401.116 152.176 396.743C154.739 393.367 157.505 390.13 160.199 386.857Z" fill="#FEFEFE"/>
<path d="M320.578 399C320.827 398.943 321.032 398.884 321.294 398.874C322.662 398.817 323.783 400.245 324.652 401.134C324.549 401.2 324.447 401.266 324.344 401.33C320.84 403.5 288.627 416.675 285.832 416.035C284.715 412.197 283.032 408.406 281.774 404.586C285.645 403.677 289.55 402.111 293.544 401.956C295.555 401.879 297.214 402.879 299.296 402.595C306.415 401.626 313.452 399.998 320.578 399Z" fill="#FEFEFE"/>
<path d="M253.645 205.958C255.862 206.175 258.098 206.286 260.321 206.444C259.11 221.833 258.919 237.228 258.235 252.641C253.958 253.107 249.669 253.395 245.368 253.503C243.051 253.554 240.735 253.573 238.418 253.56C245.975 237.042 250.669 223.975 253.645 205.958Z" fill="#FEFEFE"/>
<path d="M243.463 121.507C245.563 122.037 247.47 122.126 249.62 122.125C250.661 129.377 252.327 136.537 253.321 143.803C255.174 157.353 255.292 170.553 254.625 184.171L249.151 182.915L238.077 180.662C238.57 177.308 239.487 173.96 240.154 170.632C242.63 158.278 246.047 142.051 244.959 129.528C244.722 126.798 244.104 124.163 243.463 121.507Z" fill="#FEFEFE"/>
<path d="M231.427 89.997C231.931 89.9113 232.363 89.9236 232.866 90.0031C237.685 90.7633 245.265 103.509 247.6 107.744C248.689 109.718 249.397 111.95 250.745 113.753L250.951 114.025C250.303 115.678 249.976 117.159 249.769 118.92C242.848 118.894 235.432 116.174 229.227 113.18C226.174 111.706 223.225 109.727 219.798 109.35C219.324 109.426 218.863 109.504 218.405 109.649C213.799 111.103 211.549 117.46 209.475 121.282C207.774 117.64 206.971 113.985 207.983 110.026C208.82 106.754 211.055 102.7 214.068 100.996C218.084 98.7253 219.279 101.554 221.829 102.267C221.973 101.847 222.083 101.704 221.998 101.252C221.673 99.5292 219.83 98.1477 218.468 97.2068C218.779 96.5243 219.129 95.8954 219.604 95.3103C222.331 91.9448 227.268 90.3929 231.427 89.997Z" fill="#FEFEFE"/>
<path d="M229.347 99.0256C230.311 99.3678 231.111 99.991 231.927 100.594C235.571 103.292 242.69 109.427 243.405 114.178C239.686 108.165 233.669 104.456 229.347 99.0256Z" fill="#002642"/>
<path d="M280.533 79.0612C281.084 79.0772 281.281 79.0127 281.689 79.4265C283.637 81.402 283.94 86.5543 284.019 89.1935C282.578 90.6838 280.694 91.6294 279.573 93.4572C278.232 95.6426 279.199 98.5864 279.692 100.885C277.279 101.544 275.664 102.289 273.681 103.818C272.504 102.864 271.263 101.638 269.741 101.303C269.005 101.142 268.579 101.241 267.947 101.625C267.815 102.118 267.776 102.288 267.959 102.793C268.568 104.481 270.559 105.257 272.036 106.004C270.425 107.866 268.597 109.578 266.863 111.328C264.354 109.969 261.829 108.642 259.287 107.345C258.142 108.211 257.209 109.115 256.253 110.185L251.549 110.936C251.089 109.241 250.538 107.66 249.791 106.068C247.037 100.569 243.891 95.7721 239.867 91.1022C243.112 88.8052 246.331 86.6734 250.149 85.4364C251.018 86.2248 251.791 87.1347 252.583 87.9989L253.807 87.2731C257.04 85.3192 269.538 82.7444 274.05 81.5917C275.762 82.8499 277.861 84.7468 280.071 84.8353C280.657 84.8588 281.115 84.768 281.561 84.3707C281.595 84.0874 281.648 83.9847 281.563 83.7334C280.947 81.9216 278.703 81.2961 277.121 80.6597C278.223 80.0515 279.382 79.5667 280.533 79.0612Z" fill="#FEFEFE"/>
<path d="M272.962 87.5254C274.306 87.572 275.545 87.9612 276.696 88.6626C277.396 89.09 278.072 89.7518 278.173 90.6042C278.259 91.3286 277.841 91.8262 277.441 92.3727C277.141 92.3331 276.872 92.2696 276.59 92.1576C275.048 91.5438 273.162 90.672 272.479 89.0773C272.463 88.3646 272.561 88.1128 272.962 87.5254Z" fill="#002642"/>
<path d="M234.032 288.235C236.498 292.826 238.349 299.055 240.164 303.986C244.337 315.279 248.349 326.629 252.199 338.035C249.773 338.313 247.461 338.896 245.136 339.625C241.954 338.288 238.758 337.035 235.446 336.05C228.614 334.522 221.314 335.726 214.42 336.386C215.787 333.325 217.364 330.352 218.744 327.294C220.824 322.683 222.699 317.961 224.567 313.261C227.864 304.969 230.661 296.485 234.032 288.235Z" fill="#FEFEFE"/>
<path d="M294.667 141.135C296.978 142.51 299.081 144.406 301.295 145.95C311.162 152.83 320.556 160.367 330.445 167.188C322.824 174.671 314.798 181.773 306.847 188.904C305.497 190.116 303.616 192.48 302.015 193.238L301.839 192.837C301.98 192.121 302.287 191.278 301.961 190.59C301.423 190.202 300.905 190.255 300.268 190.24C299.852 190.23 300.056 190.294 299.692 190.045C300.066 189.588 300.671 188.903 300.752 188.288C300.839 187.628 300.71 187.53 300.307 187.063C299.17 186.588 298.605 186.604 297.451 187.066C297.367 187.1 297.283 187.136 297.199 187.17C292.588 189.505 288.597 192.525 283.425 193.582C281.123 192.331 279.519 191.298 276.897 190.709C276.886 190.697 276.875 190.686 276.865 190.674C274.214 187.727 263.196 181.753 259.084 178.946C262.727 174.246 267.398 170.135 271.501 165.823L294.667 141.135Z" fill="#FEFEFE"/>
<path d="M226.283 339.473C230.475 339.111 234.317 339.869 238.204 341.448C240.346 342.318 242.831 343.735 245.169 343.732C246.636 343.73 251.779 342.25 253.798 341.914C257.2 352.16 261.334 362.284 265.43 372.272C266.986 376.066 268.695 379.802 270.149 383.636C268.617 383.62 267.086 383.627 265.554 383.657C264.049 382.58 256.97 378.903 255.432 379.295C254.155 379.62 252.594 382.385 251.837 383.454C247.895 380.66 242.882 377.73 238.079 376.825C236.923 376.607 235.587 376.566 234.629 377.357C234.181 377.727 233.892 378.312 233.926 378.895C234.022 380.577 237.035 382.612 238.21 383.779C235.538 383.884 232.827 383.795 230.151 383.791C229.127 383.748 226.399 381.439 223.812 381.223C221.041 380.993 218.826 382.127 216.745 383.799C215.626 383.81 214.492 383.705 213.374 383.644C211.158 381.654 208.57 380.566 205.588 380.407C201.714 380.201 198.023 381.429 195.14 384.041C194.566 384.071 193.993 384.09 193.419 384.11C191.984 384.16 190.819 383.135 189.499 382.683C187.422 381.97 185.09 383.162 183.26 384.066L183.264 384.71L182.888 384.454L182.825 384.684C181.029 384.455 179.272 384.344 177.463 384.303C179.868 381.515 182.452 378.882 184.838 376.076C189.064 371.104 193.074 365.792 196.927 360.527C199.662 356.841 202.328 353.106 204.923 349.322C206.909 346.408 208.788 343.329 210.956 340.549C215.694 339.851 221.393 339.834 226.283 339.473Z" fill="#FEFEFE"/>
<path d="M218.852 112.714C219.688 112.661 220.448 112.689 221.252 112.957C224.25 113.956 227.176 115.844 230.092 117.136C233.167 118.499 236.411 119.423 239.582 120.534C244.256 134.929 239.69 155.746 236.762 170.454C236.224 173.16 234.415 179.915 234.351 181.987C234.328 182.747 234.441 183.297 234.992 183.858C235.69 184.194 236.393 184.094 237.146 184.038C240.253 183.808 244.146 185.206 247.27 185.841C255.985 187.611 264.904 189.122 273.444 191.611C273.408 192.669 273.335 193.725 273.227 194.778C273.118 195.831 272.974 196.879 272.795 197.922C272.615 198.966 272.4 200.002 272.15 201.03C271.9 202.059 271.615 203.078 271.296 204.088C261.718 203.432 252.151 202.653 242.594 201.75C235.977 201.172 229.114 200.865 222.603 199.526C220.72 199.138 218.665 198.574 217.07 197.47C216.622 197.16 216.289 196.81 216.121 196.281C215.38 193.943 215.625 190.57 215.533 188.096C215.099 176.686 215.088 165.276 215.501 153.865C215.607 150.724 216.377 143.482 215.886 140.873C215.716 139.97 215.447 139.296 214.67 138.761C214.295 138.809 214.277 138.743 214.021 139.012C213.398 139.67 213.123 140.771 212.979 141.633C212.339 145.455 212.405 149.793 212.268 153.682C211.929 162.191 211.87 170.703 212.091 179.216C212.314 183.354 211.756 196.152 214.112 199.002C215.393 200.552 217.321 201.443 219.206 202.031C223.507 203.374 228.303 203.666 232.778 204.104C238.733 204.685 244.693 205.203 250.659 205.656C250.299 207.681 249.901 209.699 249.465 211.709C249.028 213.718 248.555 215.72 248.043 217.712C247.532 219.704 246.983 221.686 246.397 223.658C245.812 225.63 245.189 227.59 244.53 229.539C243.87 231.488 243.174 233.423 242.442 235.346C241.709 237.269 240.941 239.177 240.138 241.071C239.333 242.965 238.494 244.844 237.619 246.707C236.745 248.57 235.836 250.415 234.892 252.244C223.469 253.91 212.46 254.786 200.918 254.396C196.505 239.356 196.481 219.146 197.375 203.552C198.17 190.252 199.684 177.034 201.917 163.898C204.181 150.168 206.776 136.791 212.171 123.883C213.789 120.014 215.653 115.555 218.852 112.714Z" fill="#FEFEFE"/>
</g>
<defs>
<clipPath id="clip0_214_80">
<rect width="484" height="482" fill="white"/>
</clipPath>
</defs>
</svg>
