<svg width="35" height="32" viewBox="0 0 35 32" fill="none" xmlns="http://www.w3.org/2000/svg">
<g clip-path="url(#clip0_212_50)">
<path d="M34.3488 4.07808C34.1513 3.9483 33.89 3.9262 33.6805 4.14868C33.2285 4.62858 32.7779 5.10919 32.3259 5.58909C32.3259 4.75907 32.3259 3.92905 32.3259 3.09903C32.3259 2.80738 32.0698 2.56422 31.7627 2.56422C27.3368 2.56422 22.9117 2.56422 18.4859 2.56422C15.6422 2.56422 12.7985 2.56422 9.95481 2.56422C9.64769 2.56422 9.39163 2.80738 9.39163 3.09903C9.39163 4.1387 9.39163 5.17765 9.39163 6.21731C9.09502 5.56342 8.79841 4.90882 8.50181 4.25493C8.35763 3.93618 7.84701 3.91978 7.61724 4.14654C5.82106 5.92067 4.02564 7.69552 2.23022 9.46965C2.05977 9.57875 1.96365 9.77057 2.05977 10.0159C2.7063 11.6645 3.35208 13.3124 3.99861 14.9611C3.01492 16.8101 2.03123 18.6584 1.04829 20.5066C0.795989 20.9808 1.10086 21.5798 1.69633 21.5798C2.44724 21.5798 3.19814 21.5798 3.9483 21.5798C3.9483 23.7811 3.9483 25.9831 3.9483 28.1843C3.9483 28.3598 3.9483 28.5359 3.9483 28.7113C3.9483 29.0999 4.28996 29.4244 4.69921 29.4244C9.12506 29.4244 13.5502 29.4244 17.9768 29.4244C20.7942 29.4244 23.6131 29.4244 26.4312 29.4244C26.6422 29.46 26.8593 29.4073 27.0192 29.2311C27.0214 29.229 27.0245 29.2283 27.0267 29.2254C27.0305 29.2211 27.035 29.2197 27.0387 29.2154C27.0417 29.2119 27.0447 29.2083 27.0477 29.2047C27.0507 29.2012 27.0537 29.1969 27.0575 29.1933C28.5112 27.4677 29.9658 25.742 31.4203 24.015C31.7304 23.647 32.0398 23.2798 32.3491 22.9118C32.5429 22.6801 32.7644 22.464 32.7644 22.146C32.7644 21.4643 32.7644 20.7833 32.7644 20.1016C32.7644 16.6147 32.7644 13.1292 32.7644 9.64222C33.1173 8.6981 33.4687 7.75399 33.8224 6.80988C34.0882 6.0968 34.3556 5.38301 34.6221 4.66994C34.7295 4.38114 34.5726 4.17292 34.3488 4.07808ZM32.5909 6.91185C32.5564 7.00384 32.5218 7.09654 32.4873 7.18852C32.434 7.33185 32.3799 7.47518 32.3266 7.61851C32.2658 7.78109 32.2057 7.94367 32.1449 8.10554C32.0217 8.43427 31.8993 8.76371 31.7762 9.09315C31.7019 9.29067 31.6283 9.48819 31.5547 9.68643C31.5344 9.74133 31.5111 9.78697 31.4924 9.8212C30.2879 11.2516 29.0812 12.6828 27.876 14.1132C28.1223 13.3317 28.3686 12.5509 28.6149 11.7693C28.714 11.4549 28.8131 11.1397 28.9122 10.8252C28.9866 10.7468 29.0602 10.6676 29.1353 10.5885C29.4709 10.2319 29.8073 9.87468 30.1422 9.51743C30.1753 9.48249 30.2083 9.44683 30.2413 9.41189C30.2834 9.36768 30.3239 9.32347 30.366 9.27926C31.02 8.58401 31.6741 7.88805 32.3274 7.1928C32.4145 7.09867 32.5023 7.00526 32.5909 6.91185ZM26.7136 14.0683C26.7091 14.0825 26.7046 14.0961 26.7001 14.1096C26.6573 14.2451 26.6152 14.3806 26.5717 14.5161C26.5499 14.5147 26.5296 14.5075 26.5071 14.5075C26.4545 14.5075 26.4019 14.5075 26.3501 14.5075C21.9761 14.5075 17.6036 14.5075 13.2303 14.5075C12.3885 14.5075 11.5475 14.5075 10.7057 14.5075C10.2049 14.5075 9.70476 14.5075 9.2039 14.5075C8.21195 14.5075 7.21925 14.5075 6.22731 14.5075C7.21925 13.296 8.21195 12.0845 9.2039 10.873C9.63117 10.3517 10.0584 9.82976 10.4857 9.30779C10.4932 9.29852 10.4962 9.28853 10.503 9.27926C14.7456 9.27926 18.9882 9.27926 23.2316 9.27926C25.1021 9.27926 26.9734 9.27926 28.8447 9.27926C28.7658 9.35699 28.6892 9.43685 28.6066 9.51743C28.2732 9.84259 27.9361 10.1906 27.8084 10.5977C27.4435 11.7551 27.0793 12.911 26.7136 14.0683ZM10.5187 8.09128C10.5187 6.60594 10.5187 5.11989 10.5187 3.63384C14.7569 3.63384 18.9942 3.63384 23.2331 3.63384C25.8883 3.63384 28.5443 3.63384 31.2002 3.63384C31.2002 4.68491 31.2002 5.73599 31.2002 6.78706C30.7918 7.22132 30.3825 7.6563 29.974 8.09128C29.9365 8.1305 29.8997 8.17043 29.8629 8.20965C26.0708 8.20965 22.2787 8.20965 18.4874 8.20965C15.8314 8.20965 13.1755 8.20965 10.5195 8.20965C10.5187 8.17043 10.5187 8.1305 10.5187 8.09128ZM3.25296 10.0023C4.78106 8.49203 6.3084 6.98244 7.8365 5.47286C8.29981 6.49541 8.76387 7.51725 9.22718 8.5398C9.25572 8.60184 9.2835 8.66316 9.31128 8.7252C7.83275 10.5307 6.35421 12.3362 4.87492 14.1417C4.84939 14.0768 4.82386 14.0119 4.79833 13.9471C4.28396 12.6321 3.76808 11.3172 3.25296 10.0023ZM2.9143 20.1537C3.25897 19.5062 3.60363 18.8587 3.9483 18.2098C4.35229 17.4518 4.75553 16.6931 5.15951 15.9344C9.43143 15.9344 13.7033 15.9344 17.9768 15.9344C20.4135 15.9344 22.8509 15.9344 25.2884 15.9344C24.5397 17.3406 23.7918 18.7475 23.0439 20.1537C18.9312 20.1537 14.8192 20.1537 10.7065 20.1537C10.5465 20.1537 10.3866 20.1537 10.2266 20.1537C9.88573 20.1537 9.54557 20.1537 9.20466 20.1537C7.95289 20.1537 6.70188 20.1537 5.45012 20.1537C4.94926 20.1537 4.44916 20.1537 3.9483 20.1537C3.60363 20.1537 3.25897 20.1537 2.9143 20.1537ZM13.2303 27.9975C10.6374 27.9975 8.04375 27.9975 5.45012 27.9975C5.45012 25.8576 5.45012 23.7183 5.45012 21.5791C6.70188 21.5791 7.95289 21.5791 9.20466 21.5791C9.70551 21.5791 10.2056 21.5791 10.7065 21.5791C12.1287 21.5791 13.5509 21.5791 14.9731 21.5791C17.8168 21.5791 20.6605 21.5791 23.5042 21.5791C23.5117 21.5791 23.5162 21.5755 23.523 21.5755C23.7114 21.5884 23.8924 21.5235 24.0366 21.3652C24.0456 21.3552 24.0524 21.3466 24.0599 21.3367C24.0907 21.2989 24.1274 21.2732 24.1522 21.2261C24.6861 20.2214 25.2215 19.2167 25.7562 18.2113C25.7562 19.3343 25.7562 20.4567 25.7562 21.5798C25.7562 22.0554 25.7562 22.5304 25.7562 23.006C25.7562 24.6696 25.7562 26.3339 25.7562 27.9975C21.5804 27.9975 17.4061 27.9975 13.2303 27.9975ZM31.2626 21.7153C31.2626 21.7866 31.2626 21.8586 31.2626 21.9307C30.9607 22.2893 30.6588 22.6473 30.357 23.006C29.3372 24.2168 28.3168 25.4283 27.2963 26.6391C27.3188 25.4283 27.3413 24.2175 27.3639 23.006C27.3729 22.5304 27.3811 22.0554 27.3901 21.5798C27.4232 19.8121 27.4555 18.0444 27.4885 16.276C28.6629 14.8819 29.8381 13.4871 31.0125 12.0931C31.0959 11.9939 31.1792 11.8955 31.2626 11.7964C31.2626 15.103 31.2626 18.4088 31.2626 21.7153Z" fill="white"/>
</g>
<defs>
<clipPath id="clip0_212_50">
<rect width="33.6977" height="32" fill="white" transform="translate(0.958984)"/>
</clipPath>
</defs>
</svg>
