<svg width="35" height="32" viewBox="0 0 35 32" fill="none" xmlns="http://www.w3.org/2000/svg">
<path d="M25.5373 12L20.272 3.5L18.4607 4.5L23.1047 12H11.5211L16.123 4.5L14.3117 3.5L9.04643 12H2.30688L5.91886 28H28.6859L32.2979 12H25.5373ZM26.9799 26H7.62481L4.91846 14H7.82489L6.90873 15.5L8.71999 16.5L10.268 14H24.3368L25.8742 16.5L27.6855 15.5L26.7799 14H29.6968L26.9799 26Z" fill="white"/>
<path d="M16.2493 17H18.3554V23H16.2493V17Z" fill="white"/>
<path d="M10.9841 17H13.0902V23H10.9841V17Z" fill="white"/>
<path d="M21.5146 17H23.6208V23H21.5146V17Z" fill="white"/>
</svg>
