<svg width="210" height="60" viewBox="0 0 210 60" fill="none" xmlns="http://www.w3.org/2000/svg">
<path d="M83.8586 41.3C83.5186 41.3 83.1786 41.27 82.8386 41.21C82.4986 41.15 82.1286 41.08 81.7286 41L81.9986 37.61C82.2786 37.69 82.5786 37.73 82.8986 37.73C83.7386 37.73 84.4086 37.39 84.9086 36.71C85.4086 36.01 85.7686 34.99 85.9886 33.65C86.2086 32.31 86.3586 30.66 86.4386 28.7L86.7386 20H102.189V41H98.3486V22.34L99.2486 23.3H89.2586L90.0986 22.31L89.8886 28.55C89.8286 30.63 89.6886 32.46 89.4686 34.04C89.2486 35.62 88.9086 36.95 88.4486 38.03C88.0086 39.09 87.4186 39.9 86.6786 40.46C85.9386 41.02 84.9986 41.3 83.8586 41.3ZM107.676 41V24.98H111.426V35.54L120.276 24.98H123.696V41H119.946V30.44L111.126 41H107.676ZM132.071 41V27.26L132.941 28.16H126.431V24.98H141.431V28.16H134.951L135.821 27.26V41H132.071ZM144.571 41V20H153.211C155.071 20 156.661 20.3 157.981 20.9C159.321 21.5 160.351 22.36 161.071 23.48C161.791 24.6 162.151 25.93 162.151 27.47C162.151 29.01 161.791 30.34 161.071 31.46C160.351 32.58 159.321 33.44 157.981 34.04C156.661 34.64 155.071 34.94 153.211 34.94H146.731L148.471 33.11V41H144.571ZM148.471 33.53L146.731 31.64H153.031C154.751 31.64 156.041 31.28 156.901 30.56C157.781 29.82 158.221 28.79 158.221 27.47C158.221 26.13 157.781 25.1 156.901 24.38C156.041 23.66 154.751 23.3 153.031 23.3H146.731L148.471 21.38V33.53ZM174.994 41V37.76L174.784 37.07V31.4C174.784 30.3 174.454 29.45 173.794 28.85C173.134 28.23 172.134 27.92 170.794 27.92C169.894 27.92 169.004 28.06 168.124 28.34C167.264 28.62 166.534 29.01 165.934 29.51L164.464 26.78C165.324 26.12 166.344 25.63 167.524 25.31C168.724 24.97 169.964 24.8 171.244 24.8C173.564 24.8 175.354 25.36 176.614 26.48C177.894 27.58 178.534 29.29 178.534 31.61V41H174.994ZM169.954 41.21C168.754 41.21 167.704 41.01 166.804 40.61C165.904 40.19 165.204 39.62 164.704 38.9C164.224 38.16 163.984 37.33 163.984 36.41C163.984 35.51 164.194 34.7 164.614 33.98C165.054 33.26 165.764 32.69 166.744 32.27C167.724 31.85 169.024 31.64 170.644 31.64H175.294V34.13H170.914C169.634 34.13 168.774 34.34 168.334 34.76C167.894 35.16 167.674 35.66 167.674 36.26C167.674 36.94 167.944 37.48 168.484 37.88C169.024 38.28 169.774 38.48 170.734 38.48C171.654 38.48 172.474 38.27 173.194 37.85C173.934 37.43 174.464 36.81 174.784 35.99L175.414 38.24C175.054 39.18 174.404 39.91 173.464 40.43C172.544 40.95 171.374 41.21 169.954 41.21ZM183.174 41V24.98H186.924V35.54L195.774 24.98H199.194V41H195.444V30.44L186.624 41H183.174ZM190.944 23.09C189.344 23.09 188.114 22.72 187.254 21.98C186.394 21.22 185.954 20.12 185.934 18.68H188.424C188.444 19.4 188.664 19.97 189.084 20.39C189.524 20.81 190.134 21.02 190.914 21.02C191.674 21.02 192.274 20.81 192.714 20.39C193.174 19.97 193.414 19.4 193.434 18.68H195.984C195.964 20.12 195.514 21.22 194.634 21.98C193.774 22.72 192.544 23.09 190.944 23.09Z" fill="white"/>
<g clip-path="url(#clip0_213_76)">
<path d="M62.42 13.0843H58.9552L58.247 12.637C59.1345 9.53339 59.5473 6.29791 58.6637 3.77289C58.5129 3.34076 58.0411 3.0867 57.5722 3.18512C52.4624 4.25079 48.2087 7.54852 45.54 10.1271C45.3345 10.3253 45.1364 10.5222 44.943 10.7172H36.2485C34.6625 10.7172 33.1718 11.3022 32.0508 12.3642L31.6786 12.7167L31.306 12.3637C30.185 11.3022 28.6943 10.7172 27.1088 10.7172H8.43494C8.25029 10.7172 8.06902 10.7693 7.91531 10.8664L4.4026 13.0843H0.937269C0.419572 13.0843 0 13.4816 0 13.9719V54.6817C0 55.172 0.419572 55.5693 0.937269 55.5693H28.8668V55.8655C28.8668 56.3557 29.2864 56.7531 29.8041 56.7531H33.5532C34.0709 56.7531 34.4904 56.3557 34.4904 55.8655V55.5693H62.42C62.9377 55.5693 63.3573 55.172 63.3573 54.6817V13.9714C63.3573 13.4816 62.9377 13.0843 62.42 13.0843ZM8.82358 48.4685H26.5041C27.8836 48.4685 29.181 49.1483 29.9274 50.2437H6.94904L8.82358 48.4685ZM33.4299 50.2437C34.1763 49.1483 35.4741 48.4685 36.8532 48.4685H54.5337L56.4082 50.2437H33.4299ZM57.6858 14.4159L57.7337 14.4466V48.9885L55.8591 47.2133V18.9066C56.4745 17.5827 57.1261 16.0423 57.6858 14.4159ZM57.1058 5.12604C58.364 11.0014 52.8385 20.8626 52.0849 22.17L48.0995 25.231C47.8254 25.4416 47.6997 25.7794 47.7732 26.1058C47.8467 26.4322 48.1072 26.6917 48.4475 26.7783L49.6144 27.0735L45.4496 32.3524L40.1015 34.3222C42.5517 27.3976 46.6353 18.3842 53.1512 10.1239C53.4611 9.73114 53.376 9.17496 52.9613 8.88153C52.547 8.58811 51.9592 8.66867 51.6499 9.06143C45.2616 17.1597 41.1649 25.9552 38.6364 32.8917L36.6734 26.7476L39.3871 20.7545L40.2412 21.5634C40.4906 21.7992 40.8585 21.8829 41.1934 21.7799C41.5284 21.6769 41.774 21.4046 41.8296 21.075L42.6315 16.2909C43.4513 15.1163 49.1953 7.24274 57.1058 5.12604ZM36.2485 12.4924H43.2928C41.8199 14.1788 40.9914 15.4207 40.9426 15.4939C40.8759 15.5951 40.8309 15.7082 40.8111 15.8263L40.2663 19.0768L39.7336 18.5724C39.5137 18.3641 39.1995 18.273 38.8935 18.3284C38.5885 18.3842 38.3323 18.5797 38.2096 18.8503L37.0693 21.3684H35.74C35.2223 21.3684 34.8027 21.7657 34.8027 22.256C34.8027 22.7458 35.2223 23.1436 35.74 23.1436H36.2659L34.8162 26.3452C34.7292 26.5375 34.7167 26.7522 34.7805 26.9522L36.0208 30.8359H35.74C35.2223 30.8359 34.8027 31.2332 34.8027 31.7235C34.8027 32.2133 35.2223 32.6111 35.74 32.6111H36.5878L37.5328 35.5696H35.74C35.2223 35.5696 34.8027 35.9669 34.8027 36.4572C34.8027 36.9475 35.2223 37.3448 35.74 37.3448H37.1331C36.8005 38.4151 36.5134 39.4061 36.2678 40.3033H35.74C35.2223 40.3033 34.8027 40.7007 34.8027 41.1909C34.8027 41.6812 35.2223 42.0786 35.74 42.0786H36.9963H36.9992H50.7358C51.253 42.0786 51.6726 41.6812 51.6726 41.1909C51.6726 40.7007 51.253 40.3033 50.7358 40.3033H38.2057C38.4585 39.4006 38.7514 38.41 39.0883 37.3448H50.7358C51.2535 37.3448 51.6731 36.9475 51.6731 36.4572C51.6731 35.9669 51.2535 35.5696 50.7358 35.5696H41.8871L46.3791 33.9148C46.543 33.8548 46.6851 33.7523 46.7905 33.6191L47.5856 32.6111H50.7358C51.2535 32.6111 51.6731 32.2137 51.6731 31.7235C51.6731 31.2332 51.2535 30.8359 50.7358 30.8359H48.986L51.9447 27.0863C52.1308 26.8501 52.1811 26.5421 52.0791 26.2642C51.9776 25.9859 51.7364 25.7735 51.4357 25.6975L50.7083 25.513L53.4074 23.4398C53.4988 23.3698 53.5752 23.2841 53.6332 23.1871C53.668 23.1285 53.7941 22.9152 53.9851 22.576V46.6937H36.8532C35.2402 46.6937 33.7214 47.3094 32.6159 48.3778V14.3394L33.3763 13.6194C34.1434 12.8925 35.1638 12.4924 36.2485 12.4924ZM29.9805 13.6189L30.7414 14.3394V48.3774C29.6364 47.309 28.1171 46.6937 26.5041 46.6937H9.37221V12.4924H27.1088C28.1935 12.4924 29.2134 12.8925 29.9805 13.6189ZM5.62362 14.4466L7.49815 13.2632V47.2133L5.62362 48.9885V14.4466ZM1.87454 14.859H3.74908V51.1313C3.74908 51.6147 4.17493 52.0189 4.68635 52.0189H28.8668V53.7941H1.87454V14.859ZM32.6159 54.9774H30.7414V52.0189H32.6159V54.9774ZM61.4827 53.7941H34.4904V52.0189H58.6709C59.1823 52.0189 59.6082 51.6147 59.6082 51.1313V14.859H61.4827V53.7941Z" fill="white"/>
<path d="M15.1834 18.4094H25.0554C25.5731 18.4094 25.9927 18.0121 25.9927 17.5218C25.9927 17.0316 25.5731 16.6342 25.0554 16.6342H15.1834C14.6657 16.6342 14.2461 17.0316 14.2461 17.5218C14.2461 18.0121 14.6657 18.4094 15.1834 18.4094Z" fill="white"/>
<path d="M12.6216 23.1432H27.6174C28.1351 23.1432 28.5547 22.7458 28.5547 22.2556C28.5547 21.7657 28.1351 21.368 27.6174 21.368H12.6216C12.1039 21.368 11.6843 21.7657 11.6843 22.2556C11.6843 22.7458 12.1039 23.1432 12.6216 23.1432Z" fill="white"/>
<path d="M12.6216 27.8769H27.6174C28.1351 27.8769 28.5547 27.4796 28.5547 26.9893C28.5547 26.499 28.1351 26.1017 27.6174 26.1017H12.6216C12.1039 26.1017 11.6843 26.499 11.6843 26.9893C11.6843 27.4796 12.1039 27.8769 12.6216 27.8769Z" fill="white"/>
<path d="M12.6216 32.6106H27.6174C28.1351 32.6106 28.5547 32.2133 28.5547 31.723C28.5547 31.2328 28.1351 30.8354 27.6174 30.8354H12.6216C12.1039 30.8354 11.6843 31.2328 11.6843 31.723C11.6843 32.2133 12.1039 32.6106 12.6216 32.6106Z" fill="white"/>
<path d="M12.6216 37.3444H27.6174C28.1351 37.3444 28.5547 36.947 28.5547 36.4568C28.5547 35.9665 28.1351 35.5692 27.6174 35.5692H12.6216C12.1039 35.5692 11.6843 35.9665 11.6843 36.4568C11.6843 36.947 12.1039 37.3444 12.6216 37.3444Z" fill="white"/>
<path d="M27.6174 40.3029H12.6216C12.1039 40.3029 11.6843 40.7002 11.6843 41.1905C11.6843 41.6808 12.1039 42.0781 12.6216 42.0781H27.6174C28.1351 42.0781 28.5547 41.6808 28.5547 41.1905C28.5547 40.7002 28.1351 40.3029 27.6174 40.3029Z" fill="white"/>
</g>
<defs>
<clipPath id="clip0_213_76">
<rect width="63.3573" height="60" fill="white"/>
</clipPath>
</defs>
</svg>
