<svg width="35" height="32" viewBox="0 0 35 32" fill="none" xmlns="http://www.w3.org/2000/svg">
<path d="M17.2967 2C15.8388 2 14.4136 2.41054 13.2014 3.17971C11.9891 3.94888 11.0443 5.04213 10.4864 6.32122C9.92849 7.6003 9.78251 9.00776 10.0669 10.3656C10.3514 11.7235 11.0534 12.9708 12.0843 13.9497C13.1152 14.9287 14.4287 15.5954 15.8586 15.8655C17.2885 16.1356 18.7706 15.997 20.1176 15.4672C21.4645 14.9373 22.6158 14.0401 23.4258 12.889C24.2357 11.7378 24.6681 10.3845 24.6681 9C24.6681 7.14348 23.8914 5.36301 22.509 4.05025C21.1266 2.7375 19.2517 2 17.2967 2ZM17.2967 14C16.2553 14 15.2373 13.7068 14.3714 13.1573C13.5056 12.6079 12.8307 11.827 12.4322 10.9134C12.0337 9.99979 11.9294 8.99445 12.1326 8.02455C12.3357 7.05464 12.8372 6.16373 13.5736 5.46447C14.3099 4.7652 15.2481 4.289 16.2695 4.09607C17.2908 3.90315 18.3495 4.00216 19.3116 4.3806C20.2737 4.75904 21.096 5.3999 21.6746 6.22215C22.2531 7.04439 22.5619 8.01109 22.5619 9C22.5619 9.65661 22.4258 10.3068 22.1612 10.9134C21.8965 11.52 21.5087 12.0712 21.0198 12.5355C20.5309 12.9998 19.9504 13.3681 19.3116 13.6194C18.6728 13.8707 17.9881 14 17.2967 14Z" fill="white"/>
<path d="M22.741 18H11.8524C9.38717 18.0026 7.02369 18.9338 5.28049 20.5892C3.53729 22.2445 2.55674 24.489 2.55396 26.83C2.55396 27.6707 2.90566 28.477 3.53169 29.0715C4.15772 29.666 5.0068 30 5.89214 30H28.7013C29.5866 30 30.4357 29.666 31.0618 29.0715C31.6878 28.477 32.0395 27.6707 32.0395 26.83C32.0367 24.489 31.0561 22.2445 29.3129 20.5892C27.5697 18.9338 25.2063 18.0026 22.741 18ZM28.7013 28H5.89214C5.56537 28 5.25199 27.8767 5.02093 27.6573C4.78987 27.4379 4.66006 27.1403 4.66006 26.83C4.66006 25.0186 5.41783 23.2813 6.76666 22.0005C8.11549 20.7196 9.94489 20 11.8524 20H22.741C24.6485 20 26.4779 20.7196 27.8268 22.0005C29.1756 23.2813 29.9334 25.0186 29.9334 26.83C29.9334 27.1403 29.8036 27.4379 29.5725 27.6573C29.3414 27.8767 29.0281 28 28.7013 28Z" fill="white"/>
</svg>
