<svg width="12" height="20" viewBox="0 0 12 20" fill="none" xmlns="http://www.w3.org/2000/svg">
<path d="M5.0202 13.5573C3.46975 13.4017 2.0718 13.0342 0.874932 12.1333C0.726423 12.0213 0.573096 11.9132 0.437574 11.788C-0.0862918 11.3038 -0.139076 10.7493 0.27545 10.1778C0.63007 9.68876 1.22536 9.55793 1.84411 9.83873C1.96393 9.89316 2.07808 9.96109 2.18742 10.0341C4.41799 11.509 7.48222 11.5498 9.72116 10.1004C9.94298 9.9367 10.1801 9.80325 10.4549 9.73512C10.9892 9.60308 11.4876 9.79197 11.7743 10.2419C12.1019 10.7557 12.0977 11.2573 11.6941 11.6562C11.0749 12.2678 10.3303 12.7103 9.5029 13.0191C8.72056 13.311 7.86365 13.4579 7.01554 13.5555C7.14352 13.6896 7.20384 13.7555 7.28386 13.8329C8.43548 14.9464 9.59213 16.0553 10.74 17.1723C11.1311 17.5529 11.2127 18.0248 10.9974 18.4675C10.762 18.9513 10.235 19.2695 9.71823 19.2355C9.39084 19.2137 9.13551 19.0569 8.90866 18.837C8.0396 17.9953 7.1542 17.1693 6.30273 16.3117C6.05494 16.0624 5.93576 16.1095 5.71708 16.326C4.84278 17.1922 3.95424 18.0451 3.06046 18.8932C2.65913 19.274 2.18156 19.3425 1.71613 19.125C1.22138 18.8942 0.90656 18.4082 0.930858 17.9198C0.947615 17.5894 1.11644 17.337 1.35209 17.1106C2.49177 16.0154 3.62832 14.9174 4.76528 13.8204C4.84048 13.7474 4.91065 13.67 5.0202 13.5573Z" fill="white"/>
<path d="M5.96475 9.74228C3.19879 9.73321 0.930734 7.52649 0.946863 4.86036C0.962782 2.16481 3.23231 -0.00743939 6.02549 1.91496e-05C8.82433 0.0072761 11.0708 2.21077 11.0568 4.93434C11.0425 7.59503 8.75877 9.75155 5.96475 9.74228ZM8.47851 4.86681C8.47369 3.54303 7.3782 2.48915 6.00538 2.48795C4.62104 2.48653 3.51571 3.55956 3.52639 4.89544C3.53666 6.21419 4.64157 7.2606 6.01816 7.25576C7.39056 7.25113 8.48311 6.1904 8.47851 4.86681Z" fill="white"/>
</svg>
