<svg width="20" height="18" viewBox="0 0 20 18" fill="none" xmlns="http://www.w3.org/2000/svg">
<path d="M16.1006 17.8895C15.9443 17.8895 15.7892 17.8432 15.6561 17.753L10.6273 14.3418L7.93012 16.2826C7.71858 16.4347 7.44593 16.473 7.2003 16.3852C6.95499 16.2972 6.76869 16.094 6.70219 15.842L5.3479 10.7097L0.508904 8.85938C0.204269 8.74284 0.00223509 8.4514 1.84203e-05 8.12523C-0.00219825 7.79907 0.195825 7.50488 0.498981 7.38423L18.8986 0.0628721C18.9821 0.0274053 19.0705 0.00692736 19.1596 0.00143845C19.1915 -0.000461554 19.2234 -0.000461496 19.2552 0.00133295C19.4397 0.0123108 19.621 0.0874666 19.7624 0.226167C19.7771 0.240523 19.791 0.255195 19.8042 0.270501C19.9214 0.404346 19.9858 0.567535 19.9979 0.733786C20.0009 0.775586 20.0007 0.817914 19.997 0.860241C19.9944 0.890431 19.9901 0.920514 19.984 0.950386L16.8782 17.246C16.8283 17.5078 16.6501 17.7269 16.4039 17.829C16.3063 17.8695 16.2032 17.8895 16.1006 17.8895ZM11.0688 12.7281L15.5483 15.7665L17.9649 3.08673L9.2368 11.4854L11.0477 12.7139C11.055 12.7184 11.062 12.7233 11.0688 12.7281ZM7.33985 12.0524L7.93962 14.3251L9.23183 13.3952L7.53977 12.2474C7.46113 12.1942 7.39379 12.1279 7.33985 12.0524ZM2.96994 8.10507L6.29263 9.37544C6.53066 9.46643 6.71031 9.66656 6.77534 9.91293L7.19672 11.5099C7.21603 11.3257 7.29953 11.1524 7.43517 11.0218L15.7518 3.01918L2.96994 8.10507Z" fill="white"/>
</svg>
