<svg width="20" height="12" viewBox="0 0 20 12" fill="none" xmlns="http://www.w3.org/2000/svg">
<path d="M19.894 10.5448C19.8698 10.4926 19.8472 10.4493 19.8262 10.4146C19.4792 9.78967 18.8161 9.02258 17.8373 8.11314L17.8166 8.09231L17.8062 8.0821L17.7958 8.07164H17.7853C17.341 7.64815 17.0597 7.36341 16.9419 7.21763C16.7264 6.93993 16.6781 6.65883 16.7959 6.37402C16.8791 6.15883 17.1918 5.70439 17.7331 5.01006C18.0178 4.64209 18.2433 4.34717 18.4099 4.12498C19.6109 2.52821 20.1317 1.50786 19.9719 1.06351L19.9099 0.959675C19.8682 0.897161 19.7606 0.839972 19.5872 0.787816C19.4135 0.73577 19.1914 0.727163 18.9206 0.761848L15.9217 0.782564C15.8731 0.765349 15.8037 0.766954 15.7133 0.787816C15.6231 0.808678 15.5779 0.819146 15.5779 0.819146L15.5257 0.845224L15.4843 0.876554C15.4496 0.89727 15.4114 0.933706 15.3697 0.985789C15.3282 1.03769 15.2935 1.0986 15.2658 1.16801C14.9393 2.008 14.5681 2.78899 14.1515 3.51093C13.8946 3.94141 13.6587 4.31449 13.4433 4.63038C13.2281 4.94616 13.0476 5.17882 12.9019 5.32795C12.756 5.47723 12.6244 5.59683 12.5061 5.68717C12.3881 5.77755 12.298 5.81574 12.2355 5.80177C12.173 5.7878 12.1141 5.77394 12.0583 5.76008C11.9612 5.69756 11.8831 5.61255 11.8242 5.50495C11.765 5.39736 11.7252 5.26194 11.7044 5.0988C11.6836 4.93554 11.6714 4.79513 11.6679 4.67706C11.6646 4.55915 11.6661 4.39236 11.6732 4.17717C11.6804 3.96187 11.6836 3.8162 11.6836 3.73983C11.6836 3.47599 11.6888 3.18964 11.6991 2.88072C11.7096 2.5718 11.7181 2.32703 11.7252 2.14671C11.7323 1.96621 11.7356 1.77524 11.7356 1.57391C11.7356 1.37258 11.7233 1.21469 11.6991 1.10009C11.6752 0.985643 11.6385 0.874548 11.5901 0.766844C11.5414 0.65925 11.4701 0.57602 11.3766 0.516935C11.2829 0.457922 11.1664 0.411091 11.0278 0.376297C10.6598 0.29303 10.1912 0.247986 9.62185 0.240984C8.33069 0.227124 7.50105 0.3105 7.13311 0.491003C6.98733 0.567267 6.85541 0.671469 6.73746 0.80328C6.61247 0.956064 6.59503 1.03944 6.68527 1.05315C7.10186 1.11556 7.39677 1.26484 7.57035 1.50085L7.6329 1.62592C7.68155 1.71615 7.73013 1.8759 7.77875 2.10495C7.82729 2.334 7.85862 2.58737 7.87241 2.86493C7.90706 3.37179 7.90706 3.80566 7.87241 4.16659C7.83765 4.52767 7.80483 4.80877 7.7735 5.01009C7.74217 5.21142 7.69534 5.37456 7.6329 5.49948C7.57035 5.62444 7.52873 5.70081 7.50787 5.72853C7.48704 5.75625 7.46968 5.77372 7.4559 5.78058C7.36566 5.81515 7.27182 5.83277 7.17469 5.83277C7.07742 5.83277 6.95947 5.78411 6.82065 5.68688C6.68188 5.58964 6.53784 5.45608 6.38856 5.28597C6.23928 5.11583 6.07092 4.87806 5.88342 4.57264C5.69606 4.26722 5.50166 3.90625 5.30033 3.48974L5.13376 3.18767C5.02963 2.99335 4.88739 2.71039 4.70689 2.33907C4.52628 1.96759 4.36664 1.60827 4.22786 1.26116C4.17238 1.11538 4.08904 1.00439 3.97798 0.928017L3.92587 0.896687C3.89122 0.868967 3.8356 0.839534 3.7593 0.808168C3.68289 0.776838 3.60316 0.754371 3.51978 0.740547L0.666572 0.761264C0.37501 0.761264 0.177184 0.827316 0.073018 0.959237L0.0313299 1.02164C0.0105041 1.0564 0 1.11191 0 1.18832C0 1.26469 0.0208258 1.35843 0.0625139 1.46941C0.47903 2.44834 0.931982 3.39243 1.42137 4.30183C1.91076 5.21124 2.33603 5.94379 2.69692 6.49883C3.05789 7.05427 3.42583 7.57849 3.80073 8.07123C4.17563 8.56416 4.42379 8.88005 4.54521 9.01883C4.66677 9.15786 4.76225 9.26181 4.83166 9.33121L5.09204 9.58109C5.25864 9.74773 5.5033 9.94731 5.82612 10.1798C6.14901 10.4125 6.50648 10.6415 6.8987 10.8673C7.291 11.0928 7.74738 11.2767 8.2681 11.419C8.78875 11.5614 9.2955 11.6186 9.78842 11.591H10.986C11.2288 11.57 11.4128 11.4937 11.5379 11.3619L11.5793 11.3097C11.6072 11.2682 11.6333 11.2039 11.6573 11.1172C11.6817 11.0305 11.6938 10.9349 11.6938 10.8309C11.6867 10.5324 11.7094 10.2635 11.7614 10.024C11.8133 9.78457 11.8724 9.60406 11.9386 9.4825C12.0047 9.36105 12.0793 9.25856 12.1624 9.17548C12.2456 9.09221 12.3049 9.04177 12.3397 9.02441C12.3743 9.00694 12.4019 8.99508 12.4227 8.98797C12.5893 8.93246 12.7854 8.98622 13.0112 9.14951C13.2369 9.31265 13.4485 9.51409 13.6465 9.75349C13.8444 9.99312 14.0821 10.262 14.3597 10.5604C14.6376 10.859 14.8805 11.0809 15.0886 11.2269L15.2968 11.3519C15.4359 11.4352 15.6164 11.5116 15.8386 11.581C16.0603 11.6504 16.2547 11.6678 16.4215 11.6331L19.0872 11.5915C19.3509 11.5915 19.556 11.5478 19.7015 11.4612C19.8474 11.3744 19.934 11.2788 19.9619 11.1749C19.9898 11.0708 19.9913 10.9527 19.9672 10.8206C19.9425 10.6889 19.9182 10.5968 19.894 10.5448Z" fill="white"/>
</svg>
