<svg width="29" height="20" viewBox="0 0 29 20" fill="none" xmlns="http://www.w3.org/2000/svg">
<path d="M27.311 1.65227C26.2852 0.478705 24.3912 0 20.7742 0H7.64427C3.94443 0 2.01837 0.509584 0.996397 1.75902C0 2.97722 0 4.77214 0 7.25636V11.9913C0 16.804 1.18222 19.2476 7.64427 19.2476H20.7743C23.911 19.2476 25.6491 18.8251 26.7736 17.7895C27.9267 16.7274 28.4187 14.9934 28.4187 11.9913V7.25636C28.4187 4.63654 28.3416 2.83103 27.311 1.65227ZM18.2449 10.2775L12.2827 13.2764C12.1494 13.3434 12.0036 13.3767 11.858 13.3767C11.6932 13.3767 11.5287 13.334 11.3831 13.2491C11.1088 13.0891 10.9413 12.803 10.9413 12.4944V6.51599C10.9413 6.20791 11.1083 5.92206 11.3821 5.76202C11.6559 5.60198 11.9965 5.59104 12.2806 5.73308L18.2428 8.7126C18.5462 8.86417 18.7366 9.16554 18.7371 9.49435C18.7375 9.82343 18.5478 10.1252 18.2449 10.2775Z" fill="white"/>
</svg>
